<?xml version="1.0" standalone="no"?>
<!DOCTYPE svg PUBLIC "-//W3C//DTD SVG 20010904//EN"
 "http://www.w3.org/TR/2001/REC-SVG-20010904/DTD/svg10.dtd">
<svg version="1.0" xmlns="http://www.w3.org/2000/svg"
 width="2094.000000pt" height="2094.000000pt" viewBox="0 0 2094.000000 2094.000000"
 preserveAspectRatio="xMidYMid meet">
<metadata>
Created by potrace 1.11, written by Peter Selinger 2001-2013
</metadata>
<g transform="translate(0.000000,2094.000000) scale(0.100000,-0.100000)"
fill="#000000" stroke="none">
<path d="M7370 20473 c-47 -7 -145 -42 -191 -67 -47 -27 -159 -128 -159 -145
0 -5 -3 -11 -7 -13 -15 -6 -58 -87 -96 -183 -15 -35 -30 -89 -42 -150 -3 -11
-6 -27 -8 -35 -8 -33 -28 -187 -32 -250 -8 -119 -3 -443 9 -580 14 -156 30
-302 42 -387 2 -18 6 -48 8 -65 3 -18 8 -55 12 -83 3 -27 8 -57 9 -67 2 -9 7
-38 11 -65 3 -26 8 -57 11 -68 2 -11 6 -40 9 -65 4 -25 7 -54 9 -65 1 -11 5
-28 10 -37 4 -10 5 -24 2 -32 -3 -8 -3 -17 1 -21 4 -4 7 -10 8 -13 0 -4 4 -34
9 -67 5 -33 9 -64 10 -70 1 -5 4 -17 7 -25 4 -8 13 -58 22 -110 16 -97 19
-117 36 -205 5 -27 11 -61 14 -75 2 -14 7 -36 10 -50 3 -14 8 -36 10 -50 2
-14 7 -41 11 -60 3 -19 8 -44 10 -55 2 -11 4 -20 5 -20 1 0 4 -13 6 -30 8 -46
12 -70 14 -70 1 0 4 -12 6 -27 2 -16 6 -38 7 -50 2 -13 6 -30 9 -38 3 -8 11
-44 17 -80 18 -103 20 -111 25 -128 3 -9 7 -34 10 -54 3 -21 11 -59 17 -85 6
-27 12 -61 15 -78 3 -27 13 -80 30 -155 10 -50 22 -111 34 -175 12 -71 19
-106 25 -135 3 -14 8 -41 11 -60 5 -35 8 -53 19 -100 3 -14 8 -47 11 -75 4
-27 8 -53 10 -56 4 -6 12 -52 19 -108 2 -14 4 -26 5 -26 1 0 3 -11 5 -25 5
-41 14 -103 19 -130 5 -23 11 -60 21 -135 2 -16 7 -48 10 -70 13 -82 15 -101
21 -150 2 -27 6 -61 8 -75 10 -68 18 -130 22 -180 2 -30 6 -73 9 -95 26 -236
27 -771 1 -915 -2 -14 -7 -43 -10 -65 -3 -22 -8 -49 -10 -60 -31 -129 -47
-189 -53 -199 -4 -6 -8 -13 -9 -16 -6 -30 -67 -160 -75 -160 -5 0 -9 -6 -9
-14 0 -8 -6 -21 -12 -28 -7 -7 -28 -34 -47 -59 -48 -63 -143 -136 -228 -176
-288 -134 -636 -53 -1108 256 -55 36 -104 69 -110 73 -5 4 -37 28 -70 53 -82
60 -93 69 -145 110 -25 20 -52 42 -60 48 -29 23 -125 102 -130 107 -3 3 -57
50 -120 105 -63 55 -127 111 -141 125 -15 14 -66 61 -114 105 -49 44 -105 95
-125 115 -20 19 -108 103 -195 185 -87 83 -179 170 -205 195 -25 25 -118 113
-205 195 -86 83 -165 157 -174 166 -72 69 -314 286 -431 385 -613 520 -1010
684 -1296 536 -121 -62 -236 -208 -291 -371 -43 -127 -34 -300 23 -430 33 -76
129 -239 154 -261 3 -3 28 -32 55 -65 63 -76 199 -212 290 -290 257 -221 481
-384 1010 -735 541 -359 769 -513 921 -622 86 -62 164 -117 172 -123 9 -5 25
-18 36 -29 12 -10 32 -25 46 -35 30 -19 218 -171 275 -221 146 -129 277 -262
359 -365 31 -38 61 -75 66 -82 30 -36 102 -158 133 -223 50 -108 70 -173 83
-270 3 -25 7 -54 8 -65 3 -19 -10 -154 -17 -185 -72 -299 -273 -506 -618 -634
-53 -19 -150 -49 -215 -65 -163 -41 -310 -64 -559 -86 -38 -4 -90 -9 -115 -12
-25 -3 -497 -6 -1050 -8 -553 -1 -1032 -5 -1065 -9 -33 -3 -87 -8 -120 -11
-430 -35 -717 -130 -880 -290 -72 -71 -124 -157 -140 -233 -4 -18 -10 -30 -15
-27 -4 3 -9 -58 -9 -134 -1 -77 2 -142 7 -145 5 -3 13 -25 17 -48 5 -24 9 -45
9 -48 1 -3 10 -27 20 -55 51 -131 152 -260 286 -363 30 -23 60 -46 67 -52 7
-5 15 -10 17 -10 3 0 31 -17 63 -37 48 -30 186 -98 268 -132 11 -5 31 -13 45
-19 32 -13 122 -45 135 -49 6 -1 55 -16 110 -33 94 -29 341 -95 395 -105 14
-3 34 -7 45 -9 136 -30 401 -81 530 -102 17 -2 56 -9 88 -15 32 -5 70 -12 85
-14 15 -2 128 -20 252 -39 124 -20 245 -39 270 -42 25 -3 54 -8 65 -10 11 -2
81 -13 155 -24 168 -26 215 -34 325 -54 11 -2 41 -6 66 -10 44 -6 69 -11 114
-20 23 -5 188 -36 225 -42 23 -5 270 -59 315 -70 11 -3 38 -9 60 -13 129 -28
497 -142 570 -175 17 -8 55 -24 85 -36 132 -52 362 -183 455 -260 61 -51 183
-177 217 -225 94 -133 128 -227 140 -380 1 -12 -10 -103 -16 -125 -15 -67 -30
-110 -39 -110 -6 0 -8 -3 -4 -6 8 -8 -45 -113 -90 -178 -70 -99 -98 -132 -217
-251 -124 -123 -154 -150 -241 -220 -67 -54 -74 -60 -120 -94 -22 -17 -44 -34
-50 -39 -121 -97 -660 -443 -935 -601 -25 -14 -96 -55 -158 -91 -156 -90 -152
-87 -571 -328 -310 -177 -464 -267 -713 -417 -86 -52 -134 -82 -270 -172 -134
-88 -392 -273 -408 -292 -3 -3 -27 -24 -55 -46 -68 -54 -223 -209 -271 -270
-21 -27 -42 -51 -46 -53 -5 -2 -8 -7 -8 -12 0 -4 -12 -27 -27 -50 -16 -23 -28
-45 -29 -49 -1 -7 -12 -37 -24 -66 -32 -74 -33 -200 -3 -281 36 -92 110 -185
208 -260 34 -27 66 -45 147 -85 9 -4 42 -15 75 -23 293 -76 643 4 1143 262 69
35 136 72 150 81 14 9 36 22 50 29 14 6 34 17 45 24 11 7 36 22 55 34 282 170
613 393 1080 728 719 515 903 645 1120 791 674 452 1105 665 1517 751 174 36
403 16 539 -47 135 -62 267 -182 330 -299 16 -30 32 -57 35 -60 16 -13 89
-225 94 -275 1 -11 5 -31 9 -45 31 -118 37 -531 10 -730 -3 -19 -7 -51 -10
-70 -2 -19 -6 -48 -8 -65 -12 -97 -18 -136 -31 -205 -3 -14 -8 -43 -10 -65 -7
-51 -10 -65 -18 -90 -3 -11 -8 -36 -11 -55 -3 -19 -8 -46 -11 -60 -3 -14 -8
-40 -11 -59 -2 -19 -6 -37 -9 -41 -2 -4 -7 -22 -10 -41 -3 -19 -12 -62 -20
-95 -8 -34 -17 -75 -20 -90 -8 -39 -13 -59 -15 -59 -2 0 -5 -13 -13 -60 -3
-16 -13 -57 -23 -90 -9 -33 -18 -69 -19 -80 -6 -36 -14 -65 -21 -76 -4 -6 -8
-23 -10 -38 -1 -14 -5 -35 -8 -46 -38 -144 -48 -182 -51 -195 -2 -8 -8 -35
-15 -60 -7 -25 -12 -46 -12 -47 1 -2 -4 -17 -9 -35 -6 -18 -12 -44 -15 -58 -3
-14 -14 -56 -25 -95 -11 -38 -22 -86 -25 -105 -3 -19 -11 -41 -16 -47 -6 -7
-8 -13 -5 -13 3 0 -1 -24 -9 -52 -8 -29 -17 -62 -18 -73 -2 -11 -18 -78 -35
-150 -18 -71 -34 -139 -36 -150 -2 -11 -4 -20 -5 -20 -1 0 -3 -11 -5 -25 -6
-32 -13 -65 -15 -65 -1 0 -3 -13 -5 -30 -2 -16 -7 -41 -11 -55 -4 -14 -8 -34
-10 -45 -1 -11 -5 -31 -8 -45 -9 -38 -28 -142 -31 -170 -2 -14 -6 -41 -10 -62
-6 -37 -9 -63 -23 -198 -14 -142 -8 -400 12 -495 44 -212 157 -345 345 -404
59 -19 211 -24 291 -11 119 20 268 85 364 159 39 30 212 206 241 246 17 22 32
42 35 45 12 10 120 178 165 255 58 99 218 423 222 449 2 11 10 27 18 36 8 9
15 21 15 27 0 6 8 30 19 54 20 49 31 77 30 84 0 3 7 18 16 33 21 37 125 310
125 328 0 8 4 14 8 14 5 0 9 6 9 13 0 10 25 84 81 237 3 8 6 17 7 20 1 3 5 13
8 23 4 9 10 25 14 35 3 9 7 20 8 25 2 4 3 8 5 10 1 1 3 9 5 17 2 8 27 80 55
160 29 80 53 152 55 160 2 8 4 17 5 20 1 3 2 8 1 13 0 4 4 7 11 7 6 0 9 3 5 6
-3 3 8 43 24 88 17 44 42 115 55 156 13 41 27 82 31 90 3 8 7 17 8 20 9 35 40
118 49 129 6 8 10 15 8 15 -2 1 1 14 7 29 6 16 11 33 11 38 0 5 7 26 16 47 10
20 18 42 19 47 3 11 51 138 85 225 12 30 23 60 24 65 1 6 10 28 20 49 9 22 19
50 22 63 4 13 10 23 15 23 5 0 8 3 8 8 -1 4 0 10 1 15 1 4 3 10 5 15 4 13 18
47 47 112 17 36 37 83 46 104 20 50 168 342 213 421 112 196 245 377 365 499
175 177 337 274 539 322 78 19 258 26 326 14 24 -5 58 -10 74 -13 280 -45 668
-250 1079 -571 133 -103 391 -322 451 -381 11 -11 41 -38 65 -59 39 -34 223
-205 344 -320 37 -35 399 -385 626 -606 127 -123 298 -284 451 -425 30 -28 86
-77 124 -110 39 -33 75 -65 80 -71 19 -21 201 -171 300 -247 55 -42 109 -84
120 -93 18 -14 242 -162 290 -191 11 -7 64 -35 117 -63 361 -187 651 -213 900
-83 152 80 243 200 274 364 7 41 7 181 -1 218 -3 14 -7 42 -10 61 -2 19 -7 49
-10 65 -9 44 -82 263 -105 312 -11 24 -20 45 -20 47 0 3 -21 49 -47 103 -26
54 -47 100 -48 103 -1 7 -40 81 -67 128 -11 20 -31 57 -44 80 -13 24 -54 95
-91 158 -74 126 -74 124 -153 251 -30 48 -57 92 -59 98 -2 5 -8 14 -13 20 -18
20 -158 238 -158 246 0 4 -4 9 -8 11 -11 4 -132 186 -132 198 0 6 -5 10 -10
10 -6 0 -16 12 -23 27 -6 15 -18 35 -25 43 -8 8 -58 80 -112 160 -54 80 -102
150 -107 155 -5 6 -19 27 -32 48 -13 21 -28 43 -34 50 -7 6 -18 24 -26 39 -8
15 -21 36 -30 46 -53 60 -599 888 -667 1012 -10 19 -22 37 -25 40 -7 6 -120
203 -169 295 -98 181 -194 381 -232 485 -12 30 -25 66 -31 80 -6 14 -11 27
-11 30 -1 3 -5 11 -9 18 -5 6 -6 12 -2 12 3 0 1 9 -5 21 -6 11 -13 30 -15 41
-3 11 -12 46 -21 77 -9 31 -18 67 -20 81 -3 14 -7 36 -9 50 -21 108 -23 266
-5 346 7 27 13 57 15 67 12 57 82 172 141 232 130 130 285 193 473 193 163 0
274 -26 539 -123 64 -23 273 -126 394 -194 173 -97 548 -335 556 -353 2 -5 10
-8 17 -8 7 0 15 -3 17 -7 2 -5 32 -28 68 -52 66 -45 363 -255 455 -321 28 -20
70 -51 95 -69 141 -102 366 -259 515 -358 94 -62 175 -118 182 -123 7 -6 15
-10 18 -10 4 0 25 -13 48 -29 103 -70 352 -203 478 -255 152 -62 253 -88 370
-92 162 -6 256 29 352 130 54 57 127 197 147 285 47 202 -14 415 -180 627
-152 196 -417 409 -796 641 -350 215 -409 245 -1964 1016 -400 199 -626 316
-805 417 -64 37 -157 89 -205 117 -338 195 -673 443 -871 646 -67 69 -193 232
-220 284 -10 19 -21 39 -27 46 -16 22 -53 123 -72 198 -17 68 -21 239 -8 289
25 87 34 112 60 160 146 266 490 489 1058 683 200 68 613 184 790 222 8 2 42
10 75 19 63 16 619 140 670 150 47 8 83 16 170 36 45 10 92 21 105 24 66 12
189 38 220 46 19 5 46 11 60 14 136 25 650 150 815 197 568 165 875 310 1048
494 44 47 93 126 112 180 9 28 24 58 32 68 15 16 15 19 -3 32 -16 13 -16 14
-1 9 14 -5 17 0 17 29 0 19 -5 37 -10 39 -6 2 -17 30 -25 63 -38 165 -163 344
-307 443 -153 105 -396 184 -633 207 -33 3 -77 8 -99 11 -88 12 -497 5 -666
-11 -19 -2 -69 -6 -110 -10 -41 -3 -86 -8 -100 -10 -14 -2 -59 -7 -100 -10
-41 -4 -83 -9 -94 -11 -10 -2 -44 -6 -75 -9 -31 -4 -63 -8 -71 -10 -8 -2 -46
-7 -85 -11 -38 -3 -72 -8 -75 -9 -3 -2 -33 -7 -65 -10 -33 -4 -63 -9 -66 -11
-3 -1 -32 -5 -65 -9 -33 -3 -71 -8 -84 -10 -26 -6 -65 -12 -127 -20 -21 -3
-49 -7 -63 -10 -14 -2 -47 -7 -75 -10 -27 -3 -57 -8 -65 -10 -8 -2 -37 -6 -65
-10 -27 -3 -75 -10 -105 -15 -59 -9 -134 -20 -190 -26 -19 -2 -66 -8 -105 -13
-67 -10 -84 -12 -205 -26 -30 -4 -66 -8 -80 -10 -14 -2 -56 -7 -95 -10 -38 -3
-86 -8 -105 -10 -135 -14 -272 -19 -520 -20 -321 0 -400 6 -599 44 -198 39
-400 121 -531 216 -92 67 -211 191 -225 234 -3 11 -11 21 -16 21 -6 0 -8 4 -5
9 4 5 3 11 -2 13 -20 8 -72 151 -89 243 -14 81 -8 328 11 415 11 50 16 75 20
95 10 52 50 185 73 245 4 8 7 17 8 20 5 20 19 60 30 85 7 17 29 71 50 120 55
134 247 514 273 543 6 7 12 17 12 22 0 5 40 78 89 162 49 84 97 167 107 185
40 69 188 308 193 313 3 3 13 17 21 32 12 22 157 258 260 422 8 13 37 62 65
108 27 45 53 88 58 93 10 12 190 317 234 395 72 128 109 198 128 235 11 22 24
43 28 46 5 3 8 8 7 10 -1 2 25 60 58 129 145 305 230 575 236 755 1 22 5 46 9
53 5 6 5 12 0 12 -4 0 -9 24 -11 53 -9 184 -98 344 -246 446 -263 180 -518
154 -778 -79 -58 -51 -182 -193 -228 -260 -14 -19 -28 -39 -33 -45 -28 -34
-134 -205 -129 -209 3 -3 0 -6 -6 -6 -7 0 -12 -7 -12 -15 0 -8 -4 -15 -10 -15
-5 0 -10 -4 -10 -9 0 -5 -18 -40 -39 -78 -68 -118 -152 -279 -248 -478 -11
-22 -25 -49 -31 -60 -10 -17 -32 -68 -37 -85 0 -3 -13 -27 -27 -55 -14 -27
-49 -102 -78 -165 -29 -63 -70 -152 -91 -198 -22 -45 -39 -85 -39 -87 0 -3
-18 -42 -40 -86 -22 -45 -40 -86 -40 -92 0 -6 -7 -18 -16 -28 -8 -9 -16 -26
-17 -38 -1 -11 -5 -21 -9 -21 -4 0 -8 -5 -8 -12 0 -6 -12 -36 -26 -67 -24 -51
-31 -66 -55 -111 -5 -8 -23 -46 -40 -85 -17 -38 -67 -143 -110 -232 -44 -89
-79 -167 -79 -173 0 -5 -4 -10 -8 -10 -5 0 -16 -17 -25 -37 -30 -69 -161 -309
-229 -422 -21 -34 -38 -65 -38 -67 0 -5 -182 -276 -195 -290 -5 -6 -17 -22
-25 -34 -8 -12 -20 -28 -25 -34 -6 -6 -17 -20 -25 -32 -48 -67 -214 -243 -296
-312 -122 -103 -287 -192 -426 -229 -89 -24 -299 -23 -393 1 -179 48 -393 168
-562 318 -70 62 -248 243 -298 303 -28 33 -58 69 -68 80 -10 11 -37 45 -60 75
-23 30 -44 57 -47 60 -25 25 -162 213 -240 330 -24 36 -46 67 -49 70 -3 3 -12
17 -20 33 -8 15 -18 27 -23 27 -4 0 -8 4 -8 10 0 5 -26 49 -58 97 -32 48 -72
111 -87 138 -16 28 -38 64 -49 80 -12 17 -26 39 -33 50 -6 11 -60 101 -120
200 -59 99 -113 189 -119 200 -6 11 -55 97 -109 190 -54 94 -105 181 -112 195
-8 14 -28 48 -44 75 -16 28 -35 61 -42 75 -6 14 -14 27 -17 30 -9 9 -51 85
-57 103 -3 9 -9 17 -14 17 -5 0 -9 4 -9 9 0 5 -19 42 -43 83 -24 40 -46 80
-50 88 -4 8 -16 29 -27 45 -10 17 -25 41 -33 55 -24 44 -59 104 -78 135 -11
17 -24 41 -31 55 -7 14 -15 27 -18 30 -4 3 -22 31 -41 64 -19 32 -44 75 -57
95 -12 20 -26 45 -31 57 -5 11 -15 27 -23 35 -7 8 -22 30 -32 49 -23 42 -95
154 -147 232 -22 31 -39 61 -39 67 0 5 -6 14 -12 18 -13 8 -32 35 -45 63 -4 8
-12 20 -17 27 -6 6 -27 35 -46 63 -31 45 -105 147 -127 175 -5 6 -19 26 -33
45 -13 19 -27 37 -30 40 -3 3 -24 27 -45 55 -249 311 -493 519 -719 611 -106
43 -257 62 -366 47z m12530 -7017 c0 -3 -4 -8 -10 -11 -5 -3 -10 -1 -10 4 0 6
5 11 10 11 6 0 10 -2 10 -4z"/>
<path d="M19895 13581 c-3 -5 -2 -12 3 -15 5 -3 9 1 9 9 0 17 -3 19 -12 6z"/>
</g>
</svg>
